<svg width="20" height="20" viewBox="0 0 20 20" fill="none" xmlns="http://www.w3.org/2000/svg">
<path d="M10 20C9.74125 20 9.5245 19.9126 9.34977 19.7379C9.17443 19.5626 9.08676 19.3455 9.08676 19.0868V18.1735C7.18417 17.9604 5.5519 17.1729 4.18995 15.811C2.8274 14.4484 2.03957 12.8158 1.82648 10.9132H0.913242C0.65449 10.9132 0.437443 10.8256 0.2621 10.6502C0.0873669 10.4755 0 10.2588 0 10C0 9.74125 0.0873669 9.5242 0.2621 9.34886C0.437443 9.17412 0.65449 9.08676 0.913242 9.08676H1.82648C2.03957 7.18417 2.8274 5.5516 4.18995 4.18904C5.5519 2.82709 7.18417 2.03957 9.08676 1.82648V0.913242C9.08676 0.65449 9.17443 0.437443 9.34977 0.2621C9.5245 0.0873669 9.74125 0 10 0C10.2588 0 10.4758 0.0873669 10.6511 0.2621C10.8259 0.437443 10.9132 0.65449 10.9132 0.913242V1.82648C12.8158 2.03957 14.4484 2.82709 15.811 4.18904C17.1729 5.5516 17.9604 7.18417 18.1735 9.08676H19.0868C19.3455 9.08676 19.5626 9.17412 19.7379 9.34886C19.9126 9.5242 20 9.74125 20 10C20 10.2588 19.9126 10.4755 19.7379 10.6502C19.5626 10.8256 19.3455 10.9132 19.0868 10.9132H18.1735C17.9604 12.8158 17.1729 14.4484 15.811 15.811C14.4484 17.1729 12.8158 17.9604 10.9132 18.1735V19.0868C10.9132 19.3455 10.8259 19.5626 10.6511 19.7379C10.4758 19.9126 10.2588 20 10 20ZM10 16.3927C11.7656 16.3927 13.2724 15.7686 14.5205 14.5205C15.7686 13.2724 16.3927 11.7656 16.3927 10C16.3927 8.2344 15.7686 6.72755 14.5205 5.47945C13.2724 4.23135 11.7656 3.60731 10 3.60731C8.2344 3.60731 6.72755 4.23135 5.47945 5.47945C4.23135 6.72755 3.60731 8.2344 3.60731 10C3.60731 11.7656 4.23135 13.2724 5.47945 14.5205C6.72755 15.7686 8.2344 16.3927 10 16.3927ZM10 13.653C8.99543 13.653 8.13546 13.2953 7.42009 12.5799C6.70472 11.8645 6.34703 11.0046 6.34703 10C6.34703 8.99543 6.70472 8.13546 7.42009 7.42009C8.13546 6.70472 8.99543 6.34703 10 6.34703C11.0046 6.34703 11.8645 6.70472 12.5799 7.42009C13.2953 8.13546 13.653 8.99543 13.653 10C13.653 11.0046 13.2953 11.8645 12.5799 12.5799C11.8645 13.2953 11.0046 13.653 10 13.653Z" fill="white"/>
</svg>
