<svg width="100%" height="100%" viewBox="0 0 61 72" fill="none" xmlns="http://www.w3.org/2000/svg">
<path d="M27.7229 28.806V7.23371C27.7229 4.32528 25.3651 1.96753 22.4567 1.96753C19.5483 1.96753 17.1905 4.32528 17.1905 7.23371V46.7583L11.2301 36.4345C9.77584 33.9157 6.55509 33.0527 4.03631 34.5069C1.51753 35.9611 0.654543 39.1819 2.10876 41.7007L16.0329 65.818C16.1106 65.9525 16.1933 66.0823 16.2807 66.2073C18.2541 69.3777 20.0021 70.551 25.1381 70.8141C25.4833 70.8543 25.8345 70.875 26.1905 70.875H50.3751C55.3456 70.875 59.3751 66.8456 59.3751 61.875V45.5312C59.3751 45.1917 59.3562 44.8565 59.3195 44.5265V34.8447C59.3195 31.9362 56.9618 29.5785 54.0534 29.5785C51.1578 29.5785 48.808 31.9155 48.7873 34.8062V31.8447C48.7873 28.9362 46.4296 26.5785 43.5211 26.5785C40.6257 26.5785 38.276 28.9152 38.2551 31.8057V28.8447C38.2551 25.9362 35.8974 23.5785 32.9889 23.5785C30.0934 23.5785 27.7437 25.9154 27.7229 28.806Z" fill="white" stroke="black" stroke-width="4" stroke-linejoin="round"/>
</svg>
